<?xml version="1.0" standalone="no"?>
<!DOCTYPE svg PUBLIC "-//W3C//DTD SVG 20010904//EN"
 "http://www.w3.org/TR/2001/REC-SVG-20010904/DTD/svg10.dtd">
<svg version="1.0" xmlns="http://www.w3.org/2000/svg"
 width="423.000000pt" height="423.000000pt" viewBox="0 0 423.000000 423.000000"
 preserveAspectRatio="xMidYMid meet">
<metadata>
Created by potrace 1.14, written by Peter Selinger 2001-2017
</metadata>
<g transform="translate(0.000000,423.000000) scale(0.100000,-0.100000)"
fill="#000000" stroke="none">
<path d="M2057 4224 c-1 -1 -38 -4 -82 -7 -91 -7 -214 -29 -295 -52 -30 -8
-65 -18 -77 -20 -44 -10 -214 -84 -296 -129 -385 -210 -672 -573 -825 -1046
-32 -98 -57 -190 -67 -249 -3 -19 -7 -37 -9 -40 -2 -3 -7 -35 -11 -71 -4 -36
-9 -67 -10 -70 -2 -3 -6 -37 -10 -75 -3 -39 -8 -90 -11 -115 -6 -64 -6 -379 0
-475 3 -44 11 -114 16 -155 6 -41 13 -90 15 -108 15 -104 76 -345 107 -420 6
-15 12 -32 13 -38 5 -23 78 -180 118 -254 196 -364 513 -642 894 -785 78 -30
250 -75 308 -81 22 -3 46 -7 53 -9 66 -23 536 -24 603 -1 8 3 32 8 54 11 245
36 528 160 735 323 75 59 203 192 261 272 61 83 119 176 119 189 0 5 3 11 8
13 20 8 107 229 137 348 19 71 19 75 30 140 4 25 9 54 11 65 19 98 26 711 9
724 -5 4 -356 7 -780 7 l-770 -1 0 -220 0 -220 535 0 535 -1 1 -66 c4 -198
-77 -458 -202 -650 -61 -93 -197 -229 -294 -294 -67 -44 -242 -129 -287 -139
-10 -2 -61 -14 -113 -26 -144 -33 -398 -35 -565 -5 -54 10 -182 50 -245 77
-322 137 -576 416 -711 783 -32 84 -83 288 -93 366 -22 177 -26 234 -26 385 1
238 20 419 65 601 124 495 455 873 875 997 148 44 198 51 380 51 237 1 387
-32 570 -124 251 -127 482 -403 576 -691 9 -27 19 -50 23 -50 24 -5 504 -3
506 2 4 5 -8 55 -45 199 -14 55 -94 233 -141 315 -117 205 -294 392 -499 529
-235 157 -505 252 -795 281 -63 7 -292 14 -298 9z"/>
</g>
</svg>
